<mxfile host="app.diagrams.net" agent="Mozilla/5.0 (Windows NT 10.0; Win64; x64) AppleWebKit/537.36 (KHTML, like Gecko) Chrome/134.0.0.0 Safari/537.36" version="26.1.0">
  <diagram id="YqZ86VfI66lGM7ILaLzN" name="Сторінка-1">
    <mxGraphModel dx="499" dy="425" grid="1" gridSize="10" guides="1" tooltips="1" connect="1" arrows="1" fold="1" page="1" pageScale="1" pageWidth="827" pageHeight="1169" math="0" shadow="0">
      <root>
        <mxCell id="0" />
        <mxCell id="1" parent="0" />
        <mxCell id="JW5VUFp-ZlsdKmWLyCwy-10" style="edgeStyle=orthogonalEdgeStyle;rounded=0;orthogonalLoop=1;jettySize=auto;html=1;exitX=0.5;exitY=1;exitDx=0;exitDy=0;entryX=0.5;entryY=0;entryDx=0;entryDy=0;" parent="1" source="ZR6BJyleWZM-tU2MsI-7-1" target="JW5VUFp-ZlsdKmWLyCwy-2" edge="1">
          <mxGeometry relative="1" as="geometry">
            <mxPoint x="414" y="100" as="sourcePoint" />
          </mxGeometry>
        </mxCell>
        <mxCell id="JW5VUFp-ZlsdKmWLyCwy-11" style="edgeStyle=orthogonalEdgeStyle;rounded=0;orthogonalLoop=1;jettySize=auto;html=1;exitX=0.5;exitY=1;exitDx=0;exitDy=0;entryX=0.5;entryY=0;entryDx=0;entryDy=0;" parent="1" source="JW5VUFp-ZlsdKmWLyCwy-2" target="JW5VUFp-ZlsdKmWLyCwy-3" edge="1">
          <mxGeometry relative="1" as="geometry" />
        </mxCell>
        <mxCell id="JW5VUFp-ZlsdKmWLyCwy-2" value="&lt;div style=&quot;&quot;&gt;&lt;span style=&quot;font-family: Consolas; background-color: initial;&quot;&gt;&amp;nbsp;RG3 = 0.Y.[0..0];&lt;/span&gt;&lt;/div&gt;&lt;font face=&quot;Consolas&quot; data-font-src=&quot;https://fonts.googleapis.com/css?family=Comfortaa&quot;&gt;&lt;div style=&quot;&quot;&gt;&lt;span style=&quot;background-color: initial;&quot;&gt;&amp;nbsp;RG2&amp;nbsp;= X;&lt;/span&gt;&lt;/div&gt;&lt;div style=&quot;&quot;&gt;&lt;span style=&quot;background-color: initial;&quot;&gt;&amp;nbsp;RG1&amp;nbsp;= 0;&lt;/span&gt;&lt;/div&gt;&lt;/font&gt;" style="rounded=0;whiteSpace=wrap;html=1;align=left;" parent="1" vertex="1">
          <mxGeometry x="346" y="160" width="136" height="70" as="geometry" />
        </mxCell>
        <mxCell id="ZR6BJyleWZM-tU2MsI-7-5" style="edgeStyle=orthogonalEdgeStyle;rounded=0;orthogonalLoop=1;jettySize=auto;html=1;entryX=0.5;entryY=0;entryDx=0;entryDy=0;" parent="1" source="JW5VUFp-ZlsdKmWLyCwy-3" target="JW5VUFp-ZlsdKmWLyCwy-4" edge="1">
          <mxGeometry relative="1" as="geometry" />
        </mxCell>
        <mxCell id="ZR6BJyleWZM-tU2MsI-7-7" style="edgeStyle=orthogonalEdgeStyle;rounded=0;orthogonalLoop=1;jettySize=auto;html=1;entryX=0.5;entryY=0;entryDx=0;entryDy=0;" parent="1" source="JW5VUFp-ZlsdKmWLyCwy-3" target="ZR6BJyleWZM-tU2MsI-7-6" edge="1">
          <mxGeometry relative="1" as="geometry" />
        </mxCell>
        <mxCell id="JW5VUFp-ZlsdKmWLyCwy-3" value="&lt;font face=&quot;Consolas&quot; data-font-src=&quot;https://fonts.googleapis.com/css?family=Consolas&quot;&gt;RG2[6] = 1&lt;/font&gt;" style="rhombus;whiteSpace=wrap;html=1;" parent="1" vertex="1">
          <mxGeometry x="354" y="280" width="120" height="80" as="geometry" />
        </mxCell>
        <mxCell id="ZR6BJyleWZM-tU2MsI-7-10" style="edgeStyle=orthogonalEdgeStyle;rounded=0;orthogonalLoop=1;jettySize=auto;html=1;entryX=0.5;entryY=0;entryDx=0;entryDy=0;exitX=0.5;exitY=1;exitDx=0;exitDy=0;" parent="1" source="JW5VUFp-ZlsdKmWLyCwy-4" target="JW5VUFp-ZlsdKmWLyCwy-8" edge="1">
          <mxGeometry relative="1" as="geometry" />
        </mxCell>
        <mxCell id="JW5VUFp-ZlsdKmWLyCwy-4" value="&lt;font data-font-src=&quot;https://fonts.googleapis.com/css?family=Consolas&quot; face=&quot;Consolas&quot;&gt;&amp;nbsp;RG1&amp;nbsp;= RG1&amp;nbsp;+ RG3;&lt;/font&gt;&lt;div&gt;&lt;font face=&quot;Consolas&quot;&gt;&amp;nbsp;RG3 = 0.r(RG3);&lt;/font&gt;&lt;/div&gt;&lt;div&gt;&lt;font face=&quot;Consolas&quot;&gt;&amp;nbsp;RG2 = l(RG2).0;&lt;/font&gt;&lt;/div&gt;" style="rounded=0;whiteSpace=wrap;html=1;align=left;" parent="1" vertex="1">
          <mxGeometry x="213" y="350" width="120" height="60" as="geometry" />
        </mxCell>
        <mxCell id="ZR6BJyleWZM-tU2MsI-7-12" style="edgeStyle=orthogonalEdgeStyle;rounded=0;orthogonalLoop=1;jettySize=auto;html=1;entryX=0.5;entryY=0;entryDx=0;entryDy=0;" parent="1" source="JW5VUFp-ZlsdKmWLyCwy-8" target="ZR6BJyleWZM-tU2MsI-7-2" edge="1">
          <mxGeometry relative="1" as="geometry" />
        </mxCell>
        <mxCell id="JW5VUFp-ZlsdKmWLyCwy-8" value="&lt;font face=&quot;Consolas&quot;&gt;RG2 = 0&lt;/font&gt;" style="rhombus;whiteSpace=wrap;html=1;" parent="1" vertex="1">
          <mxGeometry x="354" y="460" width="120" height="80" as="geometry" />
        </mxCell>
        <mxCell id="JW5VUFp-ZlsdKmWLyCwy-21" style="edgeStyle=orthogonalEdgeStyle;rounded=0;orthogonalLoop=1;jettySize=auto;html=1;exitX=0.5;exitY=1;exitDx=0;exitDy=0;fontSize=20;" parent="1" edge="1">
          <mxGeometry relative="1" as="geometry">
            <mxPoint x="434" y="720" as="sourcePoint" />
            <mxPoint x="434" y="720" as="targetPoint" />
          </mxGeometry>
        </mxCell>
        <mxCell id="JW5VUFp-ZlsdKmWLyCwy-22" value="&lt;font data-font-src=&quot;https://fonts.googleapis.com/css?family=Consolas&quot; face=&quot;Consolas&quot;&gt;1&lt;/font&gt;" style="text;html=1;strokeColor=none;fillColor=none;align=center;verticalAlign=middle;whiteSpace=wrap;rounded=0;fontSize=20;" parent="1" vertex="1">
          <mxGeometry x="306" y="300" width="40" height="20" as="geometry" />
        </mxCell>
        <mxCell id="ZR6BJyleWZM-tU2MsI-7-1" value="&lt;font style=&quot;font-size: 14px;&quot; data-font-src=&quot;https://fonts.googleapis.com/css?family=Consolas&quot; face=&quot;Consolas&quot;&gt;BEGIN&lt;/font&gt;" style="rounded=1;whiteSpace=wrap;html=1;" parent="1" vertex="1">
          <mxGeometry x="354" y="60" width="120" height="60" as="geometry" />
        </mxCell>
        <mxCell id="ZR6BJyleWZM-tU2MsI-7-2" value="&lt;font style=&quot;font-size: 14px;&quot; data-font-src=&quot;https://fonts.googleapis.com/css?family=Consolas&quot; face=&quot;Consolas&quot;&gt;END&lt;/font&gt;" style="rounded=1;whiteSpace=wrap;html=1;" parent="1" vertex="1">
          <mxGeometry x="354" y="575" width="120" height="60" as="geometry" />
        </mxCell>
        <mxCell id="ZR6BJyleWZM-tU2MsI-7-4" value="&lt;font data-font-src=&quot;https://fonts.googleapis.com/css?family=Consolas&quot; face=&quot;Consolas&quot;&gt;1&lt;/font&gt;" style="text;html=1;strokeColor=none;fillColor=none;align=center;verticalAlign=middle;whiteSpace=wrap;rounded=0;fontSize=20;" parent="1" vertex="1">
          <mxGeometry x="411" y="544" width="40" height="20" as="geometry" />
        </mxCell>
        <mxCell id="ZR6BJyleWZM-tU2MsI-7-11" style="edgeStyle=orthogonalEdgeStyle;rounded=0;orthogonalLoop=1;jettySize=auto;html=1;entryX=0.5;entryY=0;entryDx=0;entryDy=0;exitX=0.5;exitY=1;exitDx=0;exitDy=0;" parent="1" source="ZR6BJyleWZM-tU2MsI-7-6" target="JW5VUFp-ZlsdKmWLyCwy-8" edge="1">
          <mxGeometry relative="1" as="geometry" />
        </mxCell>
        <mxCell id="ZR6BJyleWZM-tU2MsI-7-6" value="&lt;font face=&quot;Consolas&quot;&gt;&amp;nbsp;RG3 = 0.r(RG3);&lt;/font&gt;&lt;div&gt;&lt;font face=&quot;Consolas&quot;&gt;&amp;nbsp;RG2 = l(RG2).0;&lt;/font&gt;&lt;/div&gt;" style="rounded=0;whiteSpace=wrap;html=1;align=left;" parent="1" vertex="1">
          <mxGeometry x="485" y="350" width="120" height="60" as="geometry" />
        </mxCell>
        <mxCell id="ZR6BJyleWZM-tU2MsI-7-8" value="&lt;font data-font-src=&quot;https://fonts.googleapis.com/css?family=Consolas&quot; face=&quot;Consolas&quot;&gt;0&lt;/font&gt;" style="text;html=1;strokeColor=none;fillColor=none;align=center;verticalAlign=middle;whiteSpace=wrap;rounded=0;fontSize=20;" parent="1" vertex="1">
          <mxGeometry x="485" y="300" width="40" height="20" as="geometry" />
        </mxCell>
        <mxCell id="ZR6BJyleWZM-tU2MsI-7-15" value="" style="endArrow=none;html=1;rounded=0;exitX=1;exitY=0.5;exitDx=0;exitDy=0;" parent="1" source="JW5VUFp-ZlsdKmWLyCwy-8" edge="1">
          <mxGeometry width="50" height="50" relative="1" as="geometry">
            <mxPoint x="620" y="350" as="sourcePoint" />
            <mxPoint x="630" y="500" as="targetPoint" />
          </mxGeometry>
        </mxCell>
        <mxCell id="ZR6BJyleWZM-tU2MsI-7-16" value="" style="endArrow=none;html=1;rounded=0;" parent="1" edge="1">
          <mxGeometry width="50" height="50" relative="1" as="geometry">
            <mxPoint x="630" y="500" as="sourcePoint" />
            <mxPoint x="630" y="254" as="targetPoint" />
          </mxGeometry>
        </mxCell>
        <mxCell id="ZR6BJyleWZM-tU2MsI-7-17" value="" style="endArrow=classic;html=1;rounded=0;" parent="1" edge="1">
          <mxGeometry width="50" height="50" relative="1" as="geometry">
            <mxPoint x="630" y="254" as="sourcePoint" />
            <mxPoint x="414" y="254" as="targetPoint" />
          </mxGeometry>
        </mxCell>
        <mxCell id="ZR6BJyleWZM-tU2MsI-7-18" value="&lt;font data-font-src=&quot;https://fonts.googleapis.com/css?family=Consolas&quot; face=&quot;Consolas&quot;&gt;0&lt;/font&gt;" style="text;html=1;strokeColor=none;fillColor=none;align=center;verticalAlign=middle;whiteSpace=wrap;rounded=0;fontSize=20;" parent="1" vertex="1">
          <mxGeometry x="470" y="480" width="40" height="20" as="geometry" />
        </mxCell>
      </root>
    </mxGraphModel>
  </diagram>
</mxfile>
